<svg width="14" height="15" viewBox="0 0 14 15" fill="none" xmlns="http://www.w3.org/2000/svg">
<path d="M12.8242 6.75517L10.3578 8.90767L11.0966 12.1124C11.1357 12.2799 11.1245 12.4552 11.0645 12.6165C11.0045 12.7777 10.8983 12.9176 10.7592 13.0188C10.62 13.12 10.4542 13.178 10.2823 13.1854C10.1104 13.1928 9.94017 13.1494 9.79283 13.0606L6.99775 11.3653L4.20869 13.0606C4.06134 13.1494 3.89109 13.1928 3.71922 13.1854C3.54735 13.178 3.38148 13.12 3.24236 13.0188C3.10323 12.9176 2.99703 12.7777 2.93701 12.6165C2.877 12.4552 2.86584 12.2799 2.90494 12.1124L3.64267 8.91095L1.17572 6.75517C1.04524 6.64264 0.95089 6.49408 0.904501 6.32814C0.858111 6.1622 0.861748 5.98625 0.914955 5.82237C0.968162 5.65849 1.06857 5.51396 1.20359 5.40691C1.33861 5.29987 1.50222 5.23507 1.67392 5.22064L4.92564 4.939L6.19494 1.9115C6.26122 1.75264 6.37303 1.61694 6.51628 1.5215C6.65952 1.42605 6.82781 1.37512 6.99994 1.37512C7.17207 1.37512 7.34036 1.42605 7.4836 1.5215C7.62685 1.61694 7.73866 1.75264 7.80494 1.9115L9.07806 4.939L12.3287 5.22064C12.5004 5.23507 12.664 5.29987 12.799 5.40691C12.934 5.51396 13.0345 5.65849 13.0877 5.82237C13.1409 5.98625 13.1445 6.1622 13.0981 6.32814C13.0517 6.49408 12.9574 6.64264 12.8269 6.75517H12.8242Z" fill="#363842"/>
</svg>
