<svg width="20" height="20" viewBox="0 0 20 20" fill="none" xmlns="http://www.w3.org/2000/svg">
<path d="M8.49325 16.6296C8.49325 16.868 8.42256 17.101 8.29011 17.2992C8.15767 17.4974 7.96941 17.6519 7.74916 17.7432C7.52891 17.8344 7.28656 17.8583 7.05274 17.8118C6.81892 17.7653 6.60415 17.6505 6.43558 17.4819C6.26701 17.3133 6.15221 17.0985 6.1057 16.8647C6.05919 16.6309 6.08306 16.3885 6.17429 16.1683C6.26552 15.948 6.42001 15.7598 6.61823 15.6274C6.81645 15.4949 7.0495 15.4242 7.28789 15.4242C7.60757 15.4242 7.91416 15.5512 8.14021 15.7773C8.36626 16.0033 8.49325 16.3099 8.49325 16.6296ZM15.1227 15.4242C14.8843 15.4242 14.6513 15.4949 14.4531 15.6274C14.2548 15.7598 14.1003 15.948 14.0091 16.1683C13.9179 16.3885 13.894 16.6309 13.9405 16.8647C13.987 17.0985 14.1018 17.3133 14.2704 17.4819C14.439 17.6505 14.6537 17.7653 14.8876 17.8118C15.1214 17.8583 15.3637 17.8344 15.584 17.7432C15.8042 17.6519 15.9925 17.4974 16.1249 17.2992C16.2574 17.101 16.3281 16.868 16.3281 16.6296C16.3281 16.3099 16.2011 16.0033 15.975 15.7773C15.749 15.5512 15.4424 15.4242 15.1227 15.4242ZM18.7124 5.95839L16.5631 12.9427C16.4505 13.3129 16.2216 13.637 15.9103 13.8669C15.599 14.0968 15.2219 14.2202 14.8349 14.2189H7.59451C7.20199 14.2174 6.82052 14.0888 6.50721 13.8524C6.19389 13.6159 5.96561 13.2843 5.85653 12.9073L3.13092 3.37064H1.86379C1.70395 3.37064 1.55065 3.30714 1.43763 3.19412C1.3246 3.0811 1.26111 2.9278 1.26111 2.76796C1.26111 2.60812 1.3246 2.45483 1.43763 2.3418C1.55065 2.22878 1.70395 2.16528 1.86379 2.16528H3.13092C3.39264 2.16615 3.64704 2.25176 3.85604 2.40929C4.06504 2.56682 4.21741 2.78781 4.29032 3.03917L4.90129 5.17868H18.1361C18.2304 5.17864 18.3234 5.20074 18.4076 5.2432C18.4919 5.28566 18.5649 5.34728 18.621 5.42313C18.677 5.49897 18.7145 5.58691 18.7304 5.67988C18.7463 5.77284 18.7401 5.86824 18.7124 5.95839ZM17.3202 6.38403H5.24557L7.01518 12.5766C7.05118 12.7024 7.12719 12.8132 7.23172 12.892C7.33624 12.9708 7.46359 13.0135 7.59451 13.0135H14.8349C14.9639 13.0135 15.0895 12.9722 15.1932 12.8956C15.2969 12.819 15.3734 12.7111 15.4112 12.5879L17.3202 6.38403Z" fill="white"/>
</svg>
