<svg width="30" height="30" viewBox="0 0 30 30" fill="none" xmlns="http://www.w3.org/2000/svg">
<path d="M20.625 4.19995C18.3019 4.19995 16.2679 5.19895 15 6.88758C13.7322 5.19895 11.6981 4.19995 9.37502 4.19995C7.52578 4.20204 5.75287 4.93757 4.44526 6.24518C3.13764 7.5528 2.40211 9.32571 2.40002 11.175C2.40002 19.05 14.0764 25.4242 14.5736 25.6875C14.7047 25.758 14.8512 25.7949 15 25.7949C15.1488 25.7949 15.2953 25.758 15.4264 25.6875C15.9236 25.4242 27.6 19.05 27.6 11.175C27.5979 9.32571 26.8624 7.5528 25.5548 6.24518C24.2472 4.93757 22.4743 4.20204 20.625 4.19995ZM15 23.865C12.9458 22.668 4.20002 17.2151 4.20002 11.175C4.20181 9.803 4.74761 8.48776 5.71772 7.51765C6.68783 6.54753 8.00308 6.00174 9.37502 5.99995C11.5631 5.99995 13.4003 7.16545 14.1675 9.03745C14.2353 9.20252 14.3507 9.34371 14.4989 9.44307C14.6471 9.54243 14.8216 9.59548 15 9.59548C15.1785 9.59548 15.3529 9.54243 15.5011 9.44307C15.6494 9.34371 15.7647 9.20252 15.8325 9.03745C16.5998 7.16208 18.4369 5.99995 20.625 5.99995C21.997 6.00174 23.3122 6.54753 24.2823 7.51765C25.2524 8.48776 25.7982 9.803 25.8 11.175C25.8 17.2061 17.052 22.6668 15 23.865Z" fill="white"/>
</svg>
