<svg width="18" height="18" viewBox="0 0 18 18" fill="none" xmlns="http://www.w3.org/2000/svg">
<path d="M12.6144 12.7755V12.6071H12.7827L16.9663 16.8079L16.9679 16.8096C16.9879 16.8295 16.9995 16.8561 16.9995 16.8884C16.9995 16.9208 16.9879 16.9473 16.9679 16.9672C16.948 16.9872 16.9211 16.999 16.8882 16.999C16.8554 16.999 16.8285 16.9872 16.8085 16.9672L12.6144 12.7755ZM11.3093 10.6711L11.0183 11.0105L10.6787 11.3014C9.41364 12.3851 7.6927 12.9435 5.85675 12.6363C3.35708 12.2135 1.35102 10.1165 1.04566 7.60325L1.04548 7.60178C0.575953 3.78456 3.78555 0.575488 7.60694 1.04498L7.60841 1.04516C10.1242 1.35047 12.2221 3.35597 12.6449 5.8534C12.952 7.68756 12.3935 9.40696 11.3093 10.6711Z" stroke="#979797" stroke-width="2"/>
<path d="M12.6139 12.7765V12.608H12.7822L16.9658 16.8089L16.9675 16.8106C16.9874 16.8305 16.999 16.857 16.999 16.8894C16.999 16.9217 16.9874 16.9483 16.9675 16.9682C16.9475 16.9882 16.9206 17 16.8878 17C16.8549 17 16.828 16.9882 16.8081 16.9682L12.6139 12.7765ZM11.3088 10.6721L11.0178 11.0115L10.6782 11.3023C9.41315 12.386 7.69221 12.9445 5.85626 12.6373C3.35659 12.2145 1.35053 10.1175 1.04518 7.60423L1.045 7.60275C0.575465 3.78554 3.78506 0.576465 7.60645 1.04596L7.60792 1.04614C10.1237 1.35144 12.2216 3.35695 12.6444 5.85438C12.9515 7.68854 12.393 9.40794 11.3088 10.6721Z" stroke="#979797" stroke-width="2"/>
</svg>
