<svg width="32" height="32" viewBox="0 0 32 32" fill="none" xmlns="http://www.w3.org/2000/svg">
<path d="M28.5858 7.12286C27.9983 6.15674 27.1579 5.35892 26.15 4.81052C25.1421 4.26212 24.0026 3.98271 22.8474 4.00069C21.5364 4.03976 20.2489 4.34888 19.0702 4.90757C17.8914 5.46626 16.8484 6.26178 16.0102 7.24142C15.1721 6.26481 14.1303 5.47188 12.9535 4.91497C11.7767 4.35805 10.4916 4.04981 9.18314 4.01057C8.02722 3.98982 6.88628 4.26691 5.87649 4.81361C4.86671 5.36031 4.02414 6.15711 3.43459 7.12286C2.5209 8.58738 2.02571 10.2619 2 11.9741C2.06076 13.6411 2.58075 15.2617 3.50581 16.6672C4.45559 18.1755 5.57857 19.5743 6.8532 20.8367C8.61337 22.625 10.6686 24.3541 12.3881 25.7768C12.3881 25.7768 15.1047 27.9999 15.9898 27.9999C16.875 27.9999 19.5916 25.7768 19.5916 25.7768C21.311 24.3343 23.3663 22.6052 25.1265 20.8367C26.4076 19.5784 27.5374 18.183 28.4942 16.6771C29.4192 15.2716 29.9392 13.6509 30 11.984C29.9822 10.2703 29.494 8.59222 28.5858 7.12286Z" fill="white"/>
</svg>
